<svg xmlns="http://www.w3.org/2000/svg" width="120" height="120" viewBox="0 0 120 120">
  <g fill="currentColor" opacity="0.05">
    <!-- Bowling Pin -->
    <path d="M60 20c-4 0-7 4-7 10 0 7 10 20 10 35 0 12-8 22-8 32 0 6 5 8 8 8s8-2 8-8c0-10-8-20-8-32 0-15 10-28 10-35 0-6-3-10-7-10z"/>
    <!-- Bowling Ball -->
    <circle cx="30" cy="90" r="15"/>
    <circle cx="25" cy="85" r="2" fill="#fff" opacity="0.5"/>
    <circle cx="30" cy="82" r="2" fill="#fff" opacity="0.5"/>
    <circle cx="35" cy="85" r="2" fill="#fff" opacity="0.5"/>
    
    <!-- Secondary Pin -->
    <path d="M100 60c-3 0-5 3-5 7 0 5 7 14 7 25 0 8-6 15-6 22 0 4 3 6 6 6s6-2 6-6c0-7-6-14-6-22 0-11 7-20 7-25 0-4-2-7-5-7z"/>
  </g>
</svg>